<svg width="20.000000" height="20.000000" viewBox="0 0 20 20" fill="none" xmlns="http://www.w3.org/2000/svg" xmlns:xlink="http://www.w3.org/1999/xlink">
	<desc>
			Created with Pixso.
	</desc>
	<defs/>
	<path id="facebook" d="M18.8958 0L1.10419 0C0.494141 0 0 0.494141 0 1.10413L0 18.8967C0 19.5059 0.494141 20 1.10419 20L10.6833 20L10.6833 12.255L8.07666 12.255L8.07666 9.23669L10.6833 9.23669L10.6833 7.01086C10.6833 4.42749 12.2608 3.02087 14.5659 3.02087C15.67 3.02087 16.6183 3.10339 16.895 3.14001L16.895 5.83997L15.2967 5.84082C14.0433 5.84082 13.8008 6.43665 13.8008 7.31006L13.8008 9.23755L16.79 9.23755L16.4008 12.2559L13.8008 12.2559L13.8008 20L18.8975 20C19.5059 20 20 19.5059 20 18.8959L20 1.10413C20 0.494141 19.5059 0 18.8958 0Z" fill="#FFFFFF" fill-opacity="1.000000" fill-rule="nonzero"/>
</svg>
