<svg width="20.000000" height="20.000000" viewBox="0 0 20 20" fill="none" xmlns="http://www.w3.org/2000/svg" xmlns:xlink="http://www.w3.org/1999/xlink">
	<desc>
			Created with Pixso.
	</desc>
	<defs/>
	<path id="instagram" d="M10 0C7.28418 0 6.94421 0.0117188 5.87744 0.0600586C2.24585 0.226685 0.227539 2.2417 0.060791 5.87671C0.0117188 6.94421 0 7.28418 0 10C0 12.7158 0.0117188 13.0566 0.0600586 14.1233C0.226685 17.755 2.2417 19.7733 5.87671 19.9399C6.94421 19.9883 7.28418 20 10 20C12.7158 20 13.0566 19.9883 14.1233 19.9399C17.7517 19.7733 19.775 17.7583 19.9392 14.1233C19.9883 13.0566 20 12.7158 20 10C20 7.28418 19.9883 6.94421 19.9399 5.87744C19.7766 2.24915 17.7592 0.227539 14.1241 0.060791C13.0566 0.0117188 12.7158 0 10 0ZM14.0416 1.86084C12.9867 1.8125 12.67 1.80249 10 1.80249C7.32996 1.80249 7.01416 1.8125 5.95911 1.85999C3.2467 1.98328 1.98413 3.27002 1.85999 5.95911C1.8125 7.01416 1.80164 7.32996 1.80164 10C1.80164 12.6708 1.81165 12.9867 1.85999 14.0409C1.98328 16.725 3.24255 18.0167 5.95911 18.1409C7.01331 18.1892 7.32996 18.1992 10 18.1992C12.6716 18.1992 12.9867 18.1892 14.0416 18.1409C16.7542 18.0175 18.0167 16.7291 18.1409 14.0416C18.1884 12.9875 18.1984 12.6716 18.1984 10.0009C18.1984 7.33081 18.1892 7.01416 18.1409 5.95996C18.0175 3.27002 16.7517 1.98413 14.0416 1.86084ZM14.1375 4.66248C14.1375 4 14.675 3.46252 15.3384 3.46252C16.0009 3.46252 16.5375 4 16.5375 4.66248C16.5375 5.32495 16.0009 5.86255 15.3384 5.86255C14.675 5.86255 14.1375 5.32495 14.1375 4.66248ZM4.86499 10C4.86499 7.16418 7.16418 4.86499 10 4.86499C12.8358 4.86499 15.135 7.16418 15.135 10C15.135 12.8367 12.8358 15.1359 10 15.1359C7.16418 15.1359 4.86499 12.8358 4.86499 10ZM10 13.3334C8.15918 13.3334 6.66663 11.8417 6.66663 10C6.66663 8.15918 8.15918 6.66663 10 6.66663C11.8408 6.66663 13.3334 8.15918 13.3334 10C13.3334 11.8417 11.8408 13.3334 10 13.3334Z" clip-rule="evenodd" fill="#FFFFFF" fill-opacity="1.000000" fill-rule="evenodd"/>
</svg>
