<svg width="72.000000" height="72.000000" viewBox="0 0 72 72" fill="none" xmlns="http://www.w3.org/2000/svg" xmlns:xlink="http://www.w3.org/1999/xlink">
	<desc>
			Created with Pixso.
	</desc>
	<defs>
		<linearGradient id="paint_linear_0_302_0" x1="-35.848930" y1="35.848930" x2="35.848930" y2="107.546791" gradientUnits="userSpaceOnUse">
			<stop stop-color="#33D35E"/>
			<stop offset="1.000000" stop-color="#2AB6D9"/>
		</linearGradient>
	</defs>
	<rect id="Frame 1" width="72.000000" height="72.000000" fill="#FFFFFF" fill-opacity="0"/>
	<circle id="Oval" cx="36.000000" cy="36.000000" r="36.000000" fill="url(#paint_linear_0_302_0)" fill-opacity="1.000000"/>
	<circle id="Oval" cx="36.000000" cy="36.000000" r="36.000000" stroke="#979797" stroke-opacity="0" stroke-width="0.000000"/>
	<path id="Combined Shape" d="M49.3156 19.3316L49.3156 23.0589L53.4259 27.1765C55.055 28.8062 55.9724 31.014 55.9787 33.3183L55.9787 55.3124C55.9787 55.6805 55.6805 55.9787 55.3124 55.9787L43.3188 55.9787C42.9506 55.9787 42.6525 55.6805 42.6525 55.3124L42.6525 48.8398L42.2697 48.2276C41.2988 46.6759 40.8032 44.9026 40.8032 43.1182C40.8032 41.9559 41.0135 40.7889 41.4398 39.6754L25.799 45.7005C24.082 46.3613 22.1541 45.5061 21.4924 43.7893L18.9877 37.2876C17.295 37.1151 16.0052 35.692 16 33.9904L16 19.3316C16.0023 17.4925 17.4926 16.0023 19.3315 16L45.984 16C47.823 16.0023 49.3132 17.4925 49.3156 19.3316ZM17.3326 19.3316L17.3326 33.9904C17.3326 35.0941 18.2278 35.9893 19.3315 35.9893L39.3055 35.9893L36.7036 33.1474C36.0958 32.4698 35.7953 31.6214 35.7953 30.7751C35.7953 29.8385 36.1635 28.9044 36.8909 28.2072C38.2751 26.8809 40.4623 26.8912 41.8342 28.2315L47.9376 34.3356C47.9626 34.2219 47.9778 34.1067 47.983 33.9904L47.983 23.5818L47.9771 23.5666L47.983 23.5666L47.983 19.3316C47.983 18.2278 47.0878 17.3326 45.984 17.3326L19.3315 17.3326C18.2278 17.3326 17.3326 18.2278 17.3326 19.3316ZM25.3284 23.596C25.3284 24.5528 24.5528 25.3284 23.596 25.3284L20.3977 25.3284C19.4409 25.3284 18.6653 24.5528 18.6653 23.596L18.6653 20.3977C18.6653 19.4409 19.4409 18.6653 20.3977 18.6653L23.596 18.6653C24.5528 18.6653 25.3284 19.4409 25.3284 20.3977L25.3284 23.596ZM35.9894 19.3316L37.322 19.3316L37.322 21.3305L35.9894 21.3305L35.9894 19.3316ZM38.6546 19.3316L39.9872 19.3316L39.9872 21.3305L38.6546 21.3305L38.6546 19.3316ZM41.3198 19.3316L42.6525 19.3316L42.6525 21.3305L41.3198 21.3305L41.3198 19.3316ZM43.9851 19.3316L45.3177 19.3316L45.3177 21.3305L43.9851 21.3305L43.9851 19.3316ZM19.9979 22.6631L19.9979 23.596C19.9979 23.8167 20.177 23.9958 20.3977 23.9958L23.596 23.9958C23.8167 23.9958 23.9958 23.8167 23.9958 23.596L23.9958 22.6631L22.6631 22.6631L22.6631 21.3305L23.9958 21.3305L23.9958 20.3977C23.9958 20.177 23.8167 19.9979 23.596 19.9979L20.3977 19.9979C20.177 19.9979 19.9979 20.177 19.9979 20.3977L19.9979 21.3305L21.3306 21.3305L21.3306 22.6631L19.9979 22.6631ZM43.6886 47.9829L54.6461 47.9829L54.6461 33.3183C54.6407 31.3678 53.863 29.4991 52.4837 28.1202L50.3252 25.9572L52.5805 31.8134C52.7318 32.2068 52.8034 32.6112 52.8034 33.0088C52.8034 34.3463 51.9924 35.6078 50.6702 36.1179L49.9866 36.3845L52.4519 38.8498L51.5097 39.792L40.8919 29.1766C40.037 28.3251 38.6586 28.3114 37.7866 29.1463C37.3314 29.5821 37.1014 30.166 37.1014 30.7513C37.1014 31.2871 37.2941 31.8241 37.6833 32.25L43.1436 38.2068C43.259 38.3328 43.3187 38.4943 43.3187 38.6572C43.3187 38.7705 43.2899 38.8845 43.2308 38.9877C42.4988 40.2674 42.1342 41.6911 42.1342 43.1132C42.1342 44.645 42.5571 46.1749 43.3995 47.5212L43.6886 47.9829ZM51.3378 32.2933L49.3156 27.0438L49.3156 33.9904C49.3146 34.4488 49.2189 34.9029 49.0344 35.323L50.1902 34.8766C50.9845 34.5709 51.4717 33.8137 51.4717 33.0107C51.4717 32.7721 51.4286 32.5294 51.3378 32.2933ZM19.3316 27.3273L21.9968 27.3273L21.9968 28.6599L19.3316 28.6599L19.3316 27.3273ZM23.3295 27.3273L25.9947 27.3273L25.9947 28.6599L23.3295 28.6599L23.3295 27.3273ZM27.3273 27.3273L29.9926 27.3273L29.9926 28.6599L27.3273 28.6599L27.3273 27.3273ZM31.3252 27.3273L33.9904 27.3273L33.9904 28.6599L31.3252 28.6599L31.3252 27.3273ZM19.3316 31.3252L21.9968 31.3252L21.9968 32.6578L19.3316 32.6578L19.3316 31.3252ZM31.3252 31.3252L33.9904 31.3252L33.9904 32.6578L31.3252 32.6578L31.3252 31.3252ZM22.7357 43.3101C23.1327 44.3402 24.2896 44.8538 25.3197 44.4567L41.3929 38.2621L40.5269 37.318L29.5654 37.318L29.5654 37.322L21.6117 40.387L22.7357 43.3101ZM21.1306 39.1462L25.8687 37.322L20.4296 37.322L21.1306 39.1462ZM43.985 49.3156L43.985 54.6461L54.6461 54.6461L54.6461 49.3156L43.985 49.3156ZM45.3177 50.6482L46.6503 50.6482L46.6503 51.9808L45.3177 51.9808L45.3177 50.6482Z" clip-rule="evenodd" fill="#FFFFFF" fill-opacity="1.000000" fill-rule="evenodd"/>
</svg>
