<svg width="138.758789" height="20.000000" viewBox="0 0 138.759 20" fill="none" xmlns="http://www.w3.org/2000/svg" xmlns:xlink="http://www.w3.org/1999/xlink">
	<desc>
			Created with Pixso.
	</desc>
	<defs>
		<linearGradient id="paint_linear_0_1284_0" x1="5.132673" y1="-7.422107" x2="-7.515158" y2="12.281892" gradientUnits="userSpaceOnUse">
			<stop stop-color="#33D35E"/>
			<stop offset="1.000000" stop-color="#2AB6D9"/>
		</linearGradient>
		<linearGradient id="paint_linear_0_1285_0" x1="12.501081" y1="-7.422107" x2="-0.146749" y2="12.281892" gradientUnits="userSpaceOnUse">
			<stop stop-color="#33D35E"/>
			<stop offset="1.000000" stop-color="#2AB6D9"/>
		</linearGradient>
		<linearGradient id="paint_linear_0_1286_0" x1="19.869490" y1="-7.422107" x2="7.221660" y2="12.281892" gradientUnits="userSpaceOnUse">
			<stop stop-color="#33D35E"/>
			<stop offset="1.000000" stop-color="#2AB6D9"/>
		</linearGradient>
	</defs>
	<path id="easybank" d="M43.7059 11.631C42.9059 14.2255 40.6061 15.8466 37.7538 15.8466C34.2067 15.8466 31.5789 13.2539 31.5789 9.78088C31.5789 6.29553 34.1857 3.73279 37.7538 3.73279C41.4182 3.73279 43.9553 6.34692 43.9553 9.68164L43.9553 9.68213C43.9553 10.0247 43.9254 10.3672 43.8745 10.7188L35.433 10.7188C35.6892 12.0227 36.5175 12.697 37.7538 12.697C38.6686 12.697 39.4328 12.2964 39.8092 11.631L43.7059 11.631ZM40.0978 8.55029L35.5021 8.55029C35.8189 7.42102 36.6124 6.80103 37.7537 6.80103C38.9354 6.80103 39.7543 7.41406 40.0978 8.55029ZM54.4743 14.6577C53.5433 15.4117 52.3644 15.8463 51.0439 15.8463C47.5677 15.8463 45.0829 13.3103 45.0829 9.77722C45.0829 6.25647 47.5677 3.75049 51.0439 3.75049C52.3829 3.75049 53.5789 4.19763 54.5176 4.97217L54.9183 4.09302L57.8368 4.09326L57.8368 15.4617L54.8096 15.4617L54.4743 14.6577ZM51.5676 12.3792C50.1008 12.3792 49.0227 11.271 49.0227 9.78638C49.0227 8.31079 50.092 7.20251 51.5676 7.20251C53.0343 7.20251 54.1124 8.31079 54.1124 9.78638C54.1124 11.271 53.0343 12.3792 51.5676 12.3792ZM69.7164 11.9158C69.7164 14.2916 67.7114 15.8463 64.6905 15.8461C61.592 15.8461 59.7088 14.2097 59.673 11.7466L63.4421 11.7466C63.4421 12.5779 64.0208 12.9607 64.7634 12.9607C65.3362 12.9607 65.8792 12.6685 65.8792 12.0808C65.8792 11.425 65.0185 11.2382 63.9263 11.0575C62.1636 10.7717 59.8267 10.2397 59.8267 7.48254C59.8267 5.20374 61.7686 3.73267 64.6815 3.73267C67.5764 3.73267 69.4526 5.27258 69.4973 7.57617L65.8303 7.57617C65.8303 6.85034 65.3423 6.51282 64.6328 6.51282C64.005 6.51282 63.5833 6.82361 63.5833 7.35059C63.5833 7.99744 64.4528 8.14795 65.5328 8.34058C67.3286 8.65955 69.7164 9.03284 69.7164 11.9158ZM78.6676 14.9678C77.1351 18.4471 75.7265 19.704 72.7911 19.704L71.4503 19.704L71.4503 16.3394L72.5271 16.3394C74.0252 16.3394 74.4771 15.9492 75.0076 14.5345L70.3096 4.10522L74.5648 4.10522L76.9774 10.3678L79.2257 4.10522L83.4324 4.10522L78.6676 14.9678ZM97.2684 9.7981C97.2684 13.3312 94.7958 15.8461 91.2953 15.8461C89.9686 15.8461 88.7897 15.4012 87.8661 14.6296L87.4968 15.4736L84.5991 15.4736L84.5991 0L88.4703 0L88.4703 4.53406C89.2839 4.03162 90.244 3.75049 91.2953 3.75037C94.7958 3.75037 97.2684 6.26501 97.2684 9.7981ZM90.7716 12.3788C89.3048 12.3788 88.2267 11.2705 88.2267 9.7981C88.2267 8.31348 89.3048 7.20532 90.7716 7.20532C92.2383 7.20532 93.3164 8.31348 93.3164 9.7981C93.3164 11.2705 92.2292 12.3788 90.7716 12.3788ZM107.801 14.6577C106.87 15.4117 105.691 15.8463 104.37 15.8463C100.894 15.8463 98.4092 13.3103 98.4092 9.77722C98.4092 6.25647 100.894 3.75049 104.37 3.75049C105.709 3.75049 106.905 4.19763 107.844 4.97217L108.245 4.09302L111.163 4.09326L111.163 15.4617L108.136 15.4617L107.801 14.6577ZM104.894 12.3792C103.427 12.3792 102.349 11.271 102.349 9.78638C102.349 8.31079 103.418 7.20251 104.894 7.20251C106.361 7.20251 107.439 8.31079 107.439 9.78638C107.439 11.271 106.361 12.3792 104.894 12.3792ZM117.547 9.40295L117.547 15.4736L113.631 15.4736L113.631 4.10522L116.378 4.10522L116.916 5.27747C117.762 4.33435 119.024 3.76904 120.495 3.76904C123.135 3.76904 124.868 5.64526 124.868 8.54163L124.868 15.4736L120.953 15.4736L120.953 9.08276C120.953 7.75952 120.456 7.10315 119.47 7.10315C118.249 7.10315 117.547 7.95605 117.547 9.40295ZM131.295 10.6661L131.295 15.4736L127.379 15.4736L127.379 0L131.295 0L131.295 8.55896L134.003 4.10522L138.4 4.10522L134.857 9.52356L138.759 15.4736L134.142 15.4736L131.295 10.6661Z" clip-rule="evenodd" fill="#2D314D" fill-opacity="1.000000" fill-rule="evenodd"/>
	<path id="Path 5" d="M10.8025 0L0 19.704L5.98608 19.704L16.7886 0L10.8025 0Z" fill="url(#paint_linear_0_1284_0)" fill-opacity="1.000000" fill-rule="evenodd"/>
	<path id="Path 5" d="M0 19.704L5.98608 19.704L16.7886 0L10.8025 0L0 19.704Z" stroke="#979797" stroke-opacity="0" stroke-width="0.000000"/>
	<g opacity="0.500000">
		<path id="Path 5 Copy" d="M18.1709 0L7.36841 19.704L13.3545 19.704L24.157 0L18.1709 0Z" fill="url(#paint_linear_0_1285_0)" fill-opacity="1.000000" fill-rule="evenodd"/>
		<path id="Path 5 Copy" d="M7.36841 19.704L13.3545 19.704L24.157 0L18.1709 0L7.36841 19.704Z" stroke="#979797" stroke-opacity="0" stroke-width="0.000000"/>
	</g>
	<g opacity="0.150000">
		<path id="Path 5 Copy 2" d="M25.5393 0L14.7368 19.704L20.7229 19.704L31.5254 0L25.5393 0Z" fill="url(#paint_linear_0_1286_0)" fill-opacity="1.000000" fill-rule="evenodd"/>
		<path id="Path 5 Copy 2" d="M14.7368 19.704L20.7229 19.704L31.5254 0L25.5393 0L14.7368 19.704Z" stroke="#979797" stroke-opacity="0" stroke-width="0.000000"/>
	</g>
</svg>
