<svg width="72.000000" height="72.000000" viewBox="0 0 72 72" fill="none" xmlns="http://www.w3.org/2000/svg" xmlns:xlink="http://www.w3.org/1999/xlink">
	<desc>
			Created with Pixso.
	</desc>
	<defs>
		<linearGradient id="paint_linear_0_378_0" x1="-35.848930" y1="35.848930" x2="35.848930" y2="107.546791" gradientUnits="userSpaceOnUse">
			<stop stop-color="#33D35E"/>
			<stop offset="1.000000" stop-color="#2AB6D9"/>
		</linearGradient>
	</defs>
	<circle id="Oval Copy 3" cx="36.000000" cy="36.000000" r="36.000000" fill="url(#paint_linear_0_378_0)" fill-opacity="1.000000"/>
	<circle id="Oval Copy 3" cx="36.000000" cy="36.000000" r="36.000000" stroke="#979797" stroke-opacity="0" stroke-width="0.000000"/>
	<path id="Combined Shape" d="M55.4142 35.4141L45.98 35.4141L45.98 34.0809L48.5254 34.0809C48.849 34.0809 49.1113 33.8186 49.1113 33.495C49.1113 33.1714 48.849 32.9091 48.5254 32.9091L45.98 32.9091L45.98 31.5759L47.7472 31.5759C48.4055 31.5759 49.0245 31.3195 49.49 30.854L53.3435 27.0004C53.5946 27.1255 53.873 27.192 54.1617 27.192C54.6528 27.192 55.1145 27.0008 55.4618 26.6536C55.8091 26.3063 56.0002 25.8447 56.0002 25.3536C56.0002 24.8625 55.8091 24.4009 55.4618 24.0536C55.1146 23.7063 54.6528 23.5151 54.1617 23.5151C53.6707 23.5151 53.209 23.7063 52.8618 24.0535C52.5145 24.4008 52.3232 24.8624 52.3232 25.3535C52.3232 25.6423 52.3898 25.9206 52.5149 26.1717L48.6613 30.0253C48.4171 30.2695 48.0924 30.404 47.7471 30.404L45.9799 30.404L45.9799 29.1112C45.9799 27.4068 44.5933 26.0202 42.8889 26.0202L41.5962 26.0202L41.5962 20.8331C42.3234 20.5879 42.8486 19.8998 42.8486 19.0909C42.8486 18.0772 42.0239 17.2525 41.0103 17.2525C39.9966 17.2525 39.1718 18.0773 39.1718 19.0909C39.1718 19.8998 39.697 20.5878 40.4243 20.8331L40.4243 26.0202L39.0912 26.0202L39.0912 23.4748C39.0912 23.1512 38.8287 22.8888 38.5052 22.8888C38.1816 22.8888 37.9193 23.1512 37.9193 23.4748L37.9193 26.0202L36.5861 26.0202L36.5861 16.5859C36.5861 16.2623 36.3237 16 36.0001 16C35.6765 16 35.4142 16.2623 35.4142 16.5859L35.4142 26.0202L34.0811 26.0202L34.0811 23.4748C34.0811 23.1512 33.8187 22.8888 33.4951 22.8888C33.1715 22.8888 32.9092 23.1512 32.9092 23.4748L32.9092 26.0202L31.576 26.0202L31.576 24.253C31.576 23.5947 31.3197 22.9757 30.8541 22.5102L26.9991 18.6553C27.3397 17.9677 27.2256 17.1104 26.6538 16.5385C25.9369 15.8217 24.7706 15.8218 24.0538 16.5385C23.337 17.2553 23.337 18.4216 24.0538 19.1385C24.4122 19.4969 24.8831 19.6761 25.3538 19.6761C25.6342 19.6761 25.9139 19.611 26.1705 19.4839L30.0255 23.3389C30.2698 23.583 30.4042 23.9077 30.4042 24.253L30.4042 26.0202L29.1113 26.0202C28.8501 26.0202 28.5901 26.053 28.3389 26.1176C28.0255 26.1982 27.8368 26.5177 27.9175 26.8311C27.998 27.1445 28.3176 27.3332 28.631 27.2525C28.7869 27.2124 28.9484 27.192 29.1113 27.192L42.8889 27.192C43.9471 27.192 44.808 28.053 44.808 29.1111L44.808 42.8888C44.808 43.0516 44.7877 43.213 44.7477 43.3687C44.6671 43.6822 44.856 44.0016 45.1693 44.0821C45.2181 44.0947 45.2672 44.1007 45.3156 44.1007C45.5767 44.1007 45.8147 43.925 45.8826 43.6605C45.9471 43.4095 45.9799 43.1498 45.9799 42.8887L45.9799 41.5959L51.1669 41.5959C51.4121 42.3231 52.1002 42.8484 52.9091 42.8484C53.9229 42.8484 54.7476 42.0238 54.7476 41.01C54.7476 39.9963 53.9227 39.1716 52.9091 39.1716C52.1002 39.1716 51.4122 39.6969 51.1669 40.4241L45.9799 40.4241L45.9799 39.0909L48.5253 39.0909C48.8489 39.0909 49.1112 38.8285 49.1112 38.5049C49.1112 38.1813 48.8489 37.919 48.5253 37.919L45.9799 37.919L45.9799 36.5859L55.4142 36.5859C55.7378 36.5859 56.0001 36.3236 56.0001 36C56.0001 35.6764 55.7378 35.4141 55.4142 35.4141ZM25.8251 18.3099C25.5652 18.5697 25.1423 18.5698 24.8823 18.3098C24.6224 18.0499 24.6224 17.627 24.8823 17.3672C25.0123 17.2372 25.183 17.1723 25.3538 17.1723C25.5244 17.1723 25.6951 17.2373 25.8251 17.3672C26.085 17.6271 26.085 18.05 25.8251 18.3099ZM40.3436 19.0909C40.3436 19.4584 40.6427 19.7575 41.0103 19.7575C41.3777 19.7575 41.6768 19.4584 41.6768 19.0909C41.6768 18.7234 41.3778 18.4244 41.0103 18.4244C40.6426 18.4244 40.3436 18.7234 40.3436 19.0909ZM54.1617 24.687C53.9836 24.687 53.8163 24.7563 53.6903 24.8823C53.5645 25.0081 53.4951 25.1755 53.4951 25.3536C53.4951 25.5316 53.5645 25.699 53.6903 25.8249C53.8163 25.9509 53.9836 26.0202 54.1617 26.0202C54.3397 26.0202 54.5071 25.9509 54.6331 25.8249C54.7589 25.699 54.8282 25.5316 54.8282 25.3536C54.8282 25.1755 54.7589 25.0082 54.6331 24.8823C54.5071 24.7563 54.3397 24.687 54.1617 24.687ZM45.8296 52.516C46.5172 52.1755 47.3746 52.2896 47.9464 52.8615C48.6632 53.5783 48.6632 54.7446 47.9464 55.4614C47.588 55.8199 47.1172 55.999 46.6464 55.999C46.1757 55.999 45.7047 55.8199 45.3464 55.4614C44.7745 54.8896 44.6604 54.0322 45.001 53.3446L41.146 49.4897C40.6804 49.0242 40.4241 48.4053 40.4241 47.7469L40.4241 45.9798L39.0909 45.9798L39.0909 48.5252C39.0909 48.8488 38.8286 49.1111 38.505 49.1111C38.1814 49.1111 37.9191 48.8488 37.9191 48.5252L37.9191 45.9798L36.5859 45.9798L36.5859 55.414C36.5859 55.7376 36.3236 56 36 56C35.6764 56 35.4141 55.7376 35.4141 55.414L35.4141 45.9796L34.0811 45.9796L34.0811 48.525C34.0811 48.8486 33.8187 49.111 33.4951 49.111C33.1715 49.111 32.9092 48.8486 32.9092 48.525L32.9092 45.9796L31.576 45.9796L31.576 51.1667C32.3032 51.412 32.8285 52.0999 32.8285 52.9089C32.8285 53.9225 32.0038 54.7473 30.9901 54.7473C29.9764 54.7473 29.1516 53.9226 29.1516 52.9089C29.1516 52.0999 29.677 51.4119 30.4042 51.1667L30.4042 45.9796L29.1113 45.9796C27.407 45.9796 26.0204 44.5931 26.0204 42.8887L26.0204 41.5959L24.2532 41.5959C23.9078 41.5959 23.5831 41.7304 23.339 41.9746L19.4854 45.8282C19.6105 46.0792 19.677 46.3576 19.677 46.6464C19.677 47.1375 19.4858 47.5991 19.1385 47.9464C18.7913 48.2935 18.3296 48.4848 17.8385 48.4848C17.3474 48.4848 16.8857 48.2936 16.5386 47.9464C16.1913 47.5991 16 47.1374 16 46.6464C16 46.1553 16.1913 45.6936 16.5383 45.3464C16.8856 44.9992 17.3473 44.8079 17.8384 44.8079C18.1271 44.8079 18.4055 44.8745 18.6566 44.9996L22.5101 41.146C22.9756 40.6804 23.5946 40.4241 24.2529 40.4241L26.0201 40.4241L26.0201 39.0909L23.4747 39.0909C23.1511 39.0909 22.8888 38.8285 22.8888 38.505C22.8888 38.1814 23.1511 37.919 23.4747 37.919L26.0201 37.919L26.0201 36.5859L16.5859 36.5859C16.2623 36.5859 16 36.3235 16 36C16 35.6764 16.2623 35.414 16.5859 35.414L26.0201 35.414L26.0201 34.0809L23.4747 34.0809C23.1511 34.0809 22.8888 33.8185 22.8888 33.495C22.8888 33.1714 23.1511 32.909 23.4747 32.909L26.0201 32.909L26.0201 31.5758L20.8331 31.5758C20.5878 32.303 19.8999 32.8283 19.0909 32.8283C18.0773 32.8283 17.2524 32.0036 17.2524 30.9899C17.2524 29.9761 18.0771 29.1514 19.0909 29.1514C19.8999 29.1514 20.5879 29.6768 20.8331 30.4039L26.0203 30.4039L26.0203 29.1111C26.0203 28.8497 26.053 28.5899 26.1177 28.3388C26.1982 28.0254 26.5177 27.8367 26.8312 27.9174C27.1445 27.9982 27.3333 28.3176 27.2524 28.631C27.2124 28.7867 27.1921 28.9482 27.1921 29.1111L27.1921 42.8888C27.1921 43.9469 28.053 44.8078 29.1112 44.8078L42.8888 44.8078C43.0518 44.8078 43.2133 44.7875 43.369 44.7475C43.6826 44.6668 44.002 44.8555 44.0825 45.1689C44.1632 45.4823 43.9745 45.8017 43.6611 45.8824C43.41 45.947 43.1501 45.9798 42.8888 45.9798L41.5961 45.9798L41.5961 47.7469C41.5961 48.0922 41.7305 48.4169 41.9747 48.661L45.8296 52.516ZM40.0509 31.7749C41.3057 32.1198 42.2223 33.1813 42.2223 34.4345C42.2223 35.1367 41.9227 35.8068 41.4073 36.3132C41.9229 36.8196 42.2223 37.4896 42.2223 38.192C42.2223 39.1468 41.6776 40.0311 40.8076 40.5359C40.7212 41.8244 39.5463 42.8486 38.1136 42.8486C37.2582 42.8486 36.495 42.4831 36 41.9145C35.5051 42.4831 34.7419 42.8486 33.8865 42.8486C32.3978 42.8486 31.1869 41.7429 31.1869 40.3838L31.1869 40.3824C30.3101 39.8054 29.7777 38.8752 29.7778 37.8789C29.7778 37.2239 30.0035 36.6087 30.395 36.1019C29.9946 35.6247 29.7778 35.0469 29.7778 34.4345C29.7778 33.1813 30.6945 32.1198 31.9492 31.7749C31.9121 31.6217 31.8915 31.4641 31.8915 31.3031C31.8915 30.1167 32.9445 29.1515 34.2388 29.1515C34.9397 29.1515 35.5696 29.435 36 29.8831C36.4305 29.435 37.0603 29.1515 37.7614 29.1515C39.0557 29.1515 40.1086 30.1167 40.1086 31.3031C40.1086 31.4641 40.088 31.6217 40.0509 31.7749ZM40.1484 36.8313C40.7131 37.1293 41.0502 37.638 41.0502 38.192C41.0502 38.605 40.8582 38.999 40.5339 39.2936C40.226 38.7232 39.6815 38.2691 38.9935 38.0531C38.6849 37.9561 38.356 38.1277 38.2589 38.4364C38.162 38.7452 38.3336 39.0741 38.6423 39.171C39.2396 39.3588 39.6411 39.8462 39.6411 40.3839C39.6411 41.0968 38.9558 41.6768 38.1133 41.6768C37.271 41.6768 36.5857 41.0968 36.5857 40.3839L36.5857 36.6263C36.5857 35.9134 37.271 35.3335 38.1133 35.3335C38.4369 35.3335 38.6992 35.0712 38.6992 34.7476C38.6992 34.424 38.4369 34.1616 38.1133 34.1616C37.5466 34.1616 37.0204 34.3223 36.5857 34.5958L36.5857 33.8473C36.5857 33.5238 36.3234 33.2614 35.9998 33.2614C35.6761 33.2614 35.4138 33.5238 35.4138 33.8473L35.4138 37.1002C35.2167 36.9765 35.0004 36.8741 34.7665 36.8006C34.4575 36.7035 34.1288 36.8752 34.0319 37.1838C33.9348 37.4926 34.1064 37.8215 34.4152 37.9185C35.0125 38.1063 35.4138 38.5937 35.4138 39.1313L35.4138 40.3838C35.4138 41.0967 34.7285 41.6767 33.8861 41.6767C33.0437 41.6767 32.3584 41.0967 32.3584 40.3838C32.3584 40.0783 32.4879 39.7813 32.7231 39.5475C32.9526 39.3194 32.9537 38.9484 32.7256 38.7188C32.4974 38.4893 32.1266 38.4882 31.897 38.7163C31.7566 38.8559 31.6357 39.0084 31.5353 39.1706C31.1653 38.8205 30.9492 38.3601 30.9492 37.8788C30.9492 37.0106 31.6306 36.248 32.6062 36.0241C32.9215 35.9518 33.1185 35.6374 33.0463 35.322C32.9739 35.0066 32.6594 34.8096 32.3441 34.882C31.9514 34.972 31.5898 35.1224 31.2692 35.3198C31.0613 35.0588 30.9493 34.753 30.9493 34.4343C30.9496 33.553 31.785 32.8355 32.8149 32.8287C32.8202 32.8288 32.8254 32.8295 32.8306 32.8295C32.9644 32.8295 33.0988 32.784 33.2089 32.6908C33.4335 32.5006 33.4785 32.178 33.3278 31.9352C33.3234 31.9281 33.3193 31.9207 33.3146 31.9138C33.3121 31.9102 33.3093 31.9069 33.3068 31.9034C33.2977 31.8906 33.2885 31.8781 33.2783 31.8661L33.2775 31.865C33.1797 31.7495 33.0631 31.5582 33.0631 31.3031C33.0631 30.7628 33.5905 30.3233 34.2385 30.3233C34.8866 30.3233 35.4139 30.7628 35.4139 31.3031C35.4139 31.6266 35.6763 31.889 35.9999 31.889C36.3234 31.889 36.5858 31.6266 36.5858 31.3031C36.5858 30.7628 37.1132 30.3233 37.7611 30.3233C38.4092 30.3233 38.9365 30.7628 38.9365 31.3031C38.9365 31.4474 38.8987 31.5705 38.8486 31.6718C38.5154 31.7033 38.193 31.7838 37.887 31.9129C37.5889 32.0386 37.4491 32.3823 37.5747 32.6805C37.7004 32.9786 38.0441 33.1185 38.3423 32.9927C38.5956 32.8859 38.8682 32.831 39.1523 32.8288C39.158 32.829 39.1635 32.8295 39.1691 32.8295C39.1743 32.8295 39.1796 32.8288 39.1847 32.8287C40.2147 32.8354 41.0502 33.553 41.0502 34.4343C41.0502 34.9883 40.7131 35.4969 40.1484 35.7949C39.9563 35.8963 39.8359 36.0958 39.8359 36.3131C39.8359 36.5305 39.9563 36.7299 40.1484 36.8313ZM19.0909 31.6564C18.7234 31.6564 18.4243 31.3574 18.4243 30.9899C18.4243 30.6223 18.7234 30.3233 19.0909 30.3233C19.4585 30.3233 19.7574 30.6224 19.7574 30.9899C19.7576 31.3575 19.4585 31.6564 19.0909 31.6564ZM52.9092 40.3435C53.2767 40.3435 53.5757 40.6426 53.5757 41.0101C53.5757 41.3777 53.2767 41.6766 52.9092 41.6766C52.5416 41.6766 52.2427 41.3776 52.2427 41.0101C52.2426 40.6425 52.5416 40.3435 52.9092 40.3435ZM17.8384 47.3129C18.0165 47.3129 18.1838 47.2436 18.3098 47.1177C18.4357 46.9918 18.505 46.8244 18.505 46.6464C18.505 46.4683 18.4357 46.301 18.3098 46.175C18.1838 46.0491 18.0165 45.9798 17.8384 45.9798C17.6604 45.9798 17.493 46.0491 17.3671 46.175C17.2412 46.301 17.1719 46.4683 17.1719 46.6464C17.1719 46.8244 17.2412 46.9917 17.3671 47.1177C17.493 47.2436 17.6604 47.3129 17.8384 47.3129ZM31.6565 52.909C31.6565 53.2765 31.3575 53.5756 30.9899 53.5756C30.6223 53.5756 30.3234 53.2765 30.3234 52.909C30.3234 52.5415 30.6224 52.2425 30.9899 52.2425C31.3574 52.2425 31.6565 52.5415 31.6565 52.909ZM46.175 54.6328C46.4351 54.8927 46.8579 54.8928 47.1178 54.6328C47.3777 54.3729 47.3777 53.95 47.1178 53.6902C46.9879 53.5603 46.8171 53.4953 46.6465 53.4953C46.4758 53.4953 46.3051 53.5603 46.175 53.6902C45.9152 53.95 45.9152 54.3729 46.175 54.6328Z" clip-rule="evenodd" fill="#FFFFFF" fill-opacity="1.000000" fill-rule="evenodd"/>
</svg>
