<svg width="72.000000" height="72.000000" viewBox="0 0 72 72" fill="none" xmlns="http://www.w3.org/2000/svg" xmlns:xlink="http://www.w3.org/1999/xlink">
	<desc>
			Created with Pixso.
	</desc>
	<defs>
		<linearGradient id="paint_linear_0_352_0" x1="-35.848930" y1="35.848930" x2="35.848930" y2="107.546791" gradientUnits="userSpaceOnUse">
			<stop stop-color="#33D35E"/>
			<stop offset="1.000000" stop-color="#2AB6D9"/>
		</linearGradient>
	</defs>
	<circle id="Oval Copy 2" cx="36.000000" cy="36.000000" r="36.000000" fill="url(#paint_linear_0_352_0)" fill-opacity="1.000000"/>
	<circle id="Oval Copy 2" cx="36.000000" cy="36.000000" r="36.000000" stroke="#979797" stroke-opacity="0" stroke-width="0.000000"/>
	<path id="Combined Shape" d="M52.129 39.2258C52.129 40.8374 51.3859 42.2774 50.2252 43.2252C53.5077 43.8465 56 46.7323 56 50.1936L56 56L41.1613 56L41.1613 48.5806C41.1613 48.0471 40.7271 47.6129 40.1936 47.6129L39.2258 47.6129L39.2258 48.7639L37.4238 49.2065C37.3445 49.4206 37.2549 49.6355 37.1555 49.8484L38.118 51.4387L34.6652 54.8916L33.0748 53.929C32.8613 54.0284 32.6471 54.1181 32.4329 54.1974L31.9896 56L27.1071 56L26.6646 54.1981C26.4503 54.1187 26.2355 54.029 26.0226 53.9297L24.4323 54.8923L20.9794 51.4394L21.9419 49.849C21.8425 49.6355 21.7529 49.4213 21.6736 49.2071L19.871 48.7639L19.871 43.8813L21.6736 43.4381C21.7529 43.2239 21.8425 43.0097 21.9419 42.7961L20.9794 41.2058L21.6691 40.5161L20.5161 40.5161C19.449 40.5161 18.5807 39.6477 18.5807 38.5806L18.5807 37.2903C18.5807 36.2232 19.449 35.3548 20.5161 35.3548L21.8064 35.3548C22.1626 35.3548 22.4517 35.0658 22.4517 34.7097L22.4517 34.0645L16 34.0645L16 30.8387C16 27.8303 17.8845 25.26 20.5322 24.229C19.3549 23.4129 18.5807 22.0536 18.5807 20.5161C18.5807 18.0265 20.6071 16 23.0968 16C25.5864 16 27.6129 18.0265 27.6129 20.5161C27.6129 22.0536 26.8387 23.4129 25.6613 24.229C27.3859 24.9 28.782 26.2245 29.5483 27.8994C30.3148 26.2245 31.7109 24.9006 33.4354 24.229C32.2581 23.4129 31.4839 22.0536 31.4839 20.5161C31.4839 18.0265 33.5104 16 36 16C38.4896 16 40.5161 18.0265 40.5161 20.5161C40.5161 22.0536 39.7419 23.4129 38.5646 24.229C41.2123 25.26 43.0968 27.8303 43.0968 30.8387L43.0968 34.0645L36.6451 34.0645L36.6451 34.7097C36.6451 35.0658 36.9342 35.3548 37.2903 35.3548L38.5807 35.3548C39.6477 35.3548 40.5161 36.2232 40.5161 37.2903L40.5161 38.5806C40.5161 39.6477 39.6477 40.5161 38.5807 40.5161L37.4277 40.5161L38.1174 41.2058L37.1542 42.7961C37.2007 42.8961 37.2355 42.9968 37.2781 43.0968L43.5652 43.0968C42.4896 42.1503 41.8064 40.7677 41.8064 39.2258C41.8064 36.38 44.1219 34.0645 46.9678 34.0645C49.8136 34.0645 52.129 36.38 52.129 39.2258ZM19.871 20.5161C19.871 18.7374 21.3181 17.2903 23.0968 17.2903C24.8755 17.2903 26.3226 18.7374 26.3226 20.5161C26.3226 22.2948 24.8755 23.7419 23.0968 23.7419C21.3181 23.7419 19.871 22.2948 19.871 20.5161ZM32.7742 20.5161C32.7742 18.7374 34.2213 17.2903 36 17.2903C37.7787 17.2903 39.2258 18.7374 39.2258 20.5161C39.2258 22.2948 37.7787 23.7419 36 23.7419C34.2213 23.7419 32.7742 22.2948 32.7742 20.5161ZM55.9999 28.2581C55.9999 25.7684 53.9735 23.7419 51.4838 23.7419L48.9032 23.7419C46.4135 23.7419 44.3871 25.7684 44.3871 28.2581L44.3871 32.7742L51.4838 32.7742C53.9735 32.7742 55.9999 30.7477 55.9999 28.2581ZM17.2903 30.8387C17.2903 27.6368 19.8949 25.0323 23.0968 25.0323C26.2987 25.0323 28.9032 27.6368 28.9032 30.8387L28.9032 32.7742L26.9678 32.7742L26.9678 27.6129L25.6774 27.6129L25.6774 32.7742L20.5161 32.7742L20.5161 27.6129L19.2258 27.6129L19.2258 32.7742L17.2903 32.7742L17.2903 30.8387ZM36 25.0323C39.2019 25.0323 41.8064 27.6368 41.8064 30.8387L41.8064 32.7742L39.871 32.7742L39.871 27.6129L38.5807 27.6129L38.5807 32.7742L33.4193 32.7742L33.4193 27.6129L32.129 27.6129L32.129 32.7742L30.1936 32.7742L30.1936 30.8387C30.1936 27.6368 32.7981 25.0323 36 25.0323ZM45.6774 28.2581C45.6774 26.4794 47.1244 25.0323 48.9032 25.0323L51.4838 25.0323C53.2625 25.0323 54.7096 26.4794 54.7096 28.2581C54.7096 30.0368 53.2625 31.4839 51.4838 31.4839L45.6774 31.4839L45.6774 28.2581ZM53.4193 26.3226L46.9678 26.3226L46.9678 27.6129L53.4193 27.6129L53.4193 26.3226ZM46.9678 28.9032L48.2581 28.9032L48.2581 30.1936L46.9678 30.1936L46.9678 28.9032ZM50.8387 28.9032L49.5483 28.9032L49.5483 30.1936L50.8387 30.1936L50.8387 28.9032ZM52.129 28.9032L53.4193 28.9032L53.4193 30.1936L52.129 30.1936L52.129 28.9032ZM20.5161 39.2258C20.16 39.2258 19.871 38.9368 19.871 38.5806L19.871 37.2903C19.871 36.9342 20.16 36.6452 20.5161 36.6452L21.8064 36.6452C22.8735 36.6452 23.7419 35.7768 23.7419 34.7097L23.7419 34.0645L35.3549 34.0645L35.3549 34.7097C35.3549 35.7768 36.2233 36.6452 37.2903 36.6452L38.5807 36.6452C38.9368 36.6452 39.2258 36.9342 39.2258 37.2903L39.2258 38.5806C39.2258 38.9368 38.9368 39.2258 38.5807 39.2258L36.1375 39.2258L34.6652 37.7535L33.0748 38.7161C32.8613 38.6168 32.6471 38.5271 32.4329 38.4477L31.9896 36.6452L27.1071 36.6452L26.6638 38.4477C26.4497 38.5271 26.2355 38.6168 26.022 38.7161L24.4316 37.7535L22.9594 39.2258L20.5161 39.2258ZM43.0968 39.2258C43.0968 37.091 44.8329 35.3548 46.9678 35.3548C49.1025 35.3548 50.8387 37.091 50.8387 39.2258C50.8387 41.3606 49.1025 43.0968 46.9678 43.0968C44.8329 43.0968 43.0968 41.3606 43.0968 39.2258ZM37.9354 47.7523L36.4226 48.1245L36.3129 48.469C36.1954 48.8387 36.0387 49.2135 35.8464 49.5832L35.6793 49.9045L36.489 51.2426L34.4678 53.2639L33.1296 52.4542L32.8083 52.6213C32.4387 52.8135 32.0638 52.9703 31.6954 53.0871L31.3497 53.1961L30.978 54.7097L28.1187 54.7097L27.7465 53.1968L27.402 53.0871C27.0322 52.9697 26.6575 52.8129 26.2877 52.6206L25.9664 52.4535L24.6284 53.2632L22.6071 51.2419L23.4167 49.9039L23.2496 49.5826C23.0574 49.2129 22.9006 48.8381 22.7838 48.4697L22.6748 48.1239L21.1613 47.7523L21.1613 44.8929L22.6755 44.5206L22.7845 44.1748C22.9012 43.8071 23.0581 43.4323 23.2504 43.0619L23.4175 42.7406L22.6078 41.4026L24.629 39.3813L25.967 40.191L26.2883 40.0239C26.6581 39.8316 27.033 39.6748 27.4012 39.5581L27.7471 39.449L28.1187 37.9355L30.978 37.9355L31.3503 39.4497L31.6962 39.5587C32.0638 39.6755 32.4387 39.8323 32.8091 40.0245L33.1304 40.1916L34.4684 39.3819L36.4896 41.4032L35.6801 42.7413L35.847 43.0626C35.8529 43.0742 35.858 43.0858 35.8639 43.0974L34.3613 43.0974C33.2883 41.5006 31.4839 40.5161 29.5483 40.5161C26.3464 40.5161 23.7419 43.1206 23.7419 46.3226C23.7419 49.5245 26.3464 52.129 29.5483 52.129C32.2781 52.129 34.618 50.2239 35.2097 47.6129L37.9354 47.6129L37.9354 47.7523ZM30.7936 43.3477C30.4006 43.1839 29.9768 43.0968 29.5483 43.0968C27.7697 43.0968 26.3226 44.5439 26.3226 46.3226C26.3226 48.1013 27.7697 49.5484 29.5483 49.5484C30.847 49.5484 31.9974 48.7729 32.5039 47.6129L33.8749 47.6129C33.3148 49.4942 31.5709 50.8387 29.5483 50.8387C27.0587 50.8387 25.0322 48.8123 25.0322 46.3226C25.0322 43.8329 27.0587 41.8064 29.5483 41.8064C30.7394 41.8064 31.869 42.2839 32.7039 43.0968L31.8064 43.0968C31.4407 43.0968 31.0994 43.1929 30.7936 43.3477ZM31.0897 47.4852C30.7323 47.9581 30.171 48.2581 29.5483 48.2581C28.4813 48.2581 27.6129 47.3897 27.6129 46.3226C27.6129 45.2555 28.4813 44.3871 29.5483 44.3871C29.62 44.3871 29.6891 44.4065 29.76 44.4148C29.6271 44.7019 29.5483 45.0181 29.5483 45.3548C29.5483 46.3477 30.1968 47.1839 31.0897 47.4852ZM54.7097 54.7097L52.7742 54.7097L52.7742 47.6129L51.4839 47.6129L51.4839 54.7097L42.4517 54.7097L42.4517 48.5806C42.4517 47.3355 41.4387 46.3226 40.1936 46.3226L31.8064 46.3226C31.2729 46.3226 30.8387 45.8884 30.8387 45.3548C30.8387 44.8213 31.2729 44.3871 31.8064 44.3871L48.9032 44.3871C52.1051 44.3871 54.7097 46.9916 54.7097 50.1936L54.7097 54.7097Z" clip-rule="evenodd" fill="#FFFFFF" fill-opacity="1.000000" fill-rule="evenodd"/>
</svg>
