<svg width="139.000000" height="20.000000" viewBox="0 0 139 20" fill="none" xmlns="http://www.w3.org/2000/svg" xmlns:xlink="http://www.w3.org/1999/xlink">
	<desc>
			Created with Pixso.
	</desc>
	<defs>
		<linearGradient id="paint_linear_0_1342_0" x1="5.132673" y1="-7.422107" x2="-7.515158" y2="12.281892" gradientUnits="userSpaceOnUse">
			<stop stop-color="#33D35E"/>
			<stop offset="1.000000" stop-color="#2AB6D9"/>
		</linearGradient>
		<linearGradient id="paint_linear_0_1343_0" x1="12.501081" y1="-7.422107" x2="-0.146749" y2="12.281892" gradientUnits="userSpaceOnUse">
			<stop stop-color="#33D35E"/>
			<stop offset="1.000000" stop-color="#2AB6D9"/>
		</linearGradient>
		<linearGradient id="paint_linear_0_1344_0" x1="19.869490" y1="-7.422107" x2="7.221660" y2="12.281892" gradientUnits="userSpaceOnUse">
			<stop stop-color="#33D35E"/>
			<stop offset="1.000000" stop-color="#2AB6D9"/>
		</linearGradient>
	</defs>
	<path id="easybank" d="M43.7059 11.6309C42.9059 14.2255 40.6061 15.8465 37.7538 15.8465C34.2067 15.8465 31.5789 13.2539 31.5789 9.78082C31.5789 6.29559 34.1857 3.73285 37.7538 3.73285C41.4182 3.73285 43.9553 6.34692 43.9553 9.6817L43.9553 9.68213C43.9553 10.0247 43.9254 10.3672 43.8745 10.7188L35.433 10.7188C35.6892 12.0228 36.5175 12.6971 37.7538 12.6971C38.6686 12.6971 39.4328 12.2964 39.8092 11.6309L43.7059 11.6309ZM40.0978 8.55029L35.5021 8.55029C35.8189 7.42108 36.6124 6.80103 37.7537 6.80103C38.9354 6.80103 39.7543 7.41412 40.0978 8.55029ZM54.4743 14.6577C53.5433 15.4118 52.3644 15.8463 51.0439 15.8463C47.5677 15.8463 45.0829 13.3103 45.0829 9.77728C45.0829 6.25641 47.5677 3.75055 51.0439 3.75055C52.3829 3.75055 53.5789 4.19769 54.5176 4.97223L54.9183 4.09308L57.8368 4.09326L57.8368 15.4617L54.8096 15.4617L54.4743 14.6577ZM51.5676 12.3792C50.1008 12.3792 49.0227 11.2709 49.0227 9.78632C49.0227 8.31073 50.092 7.20251 51.5676 7.20251C53.0343 7.20251 54.1124 8.31073 54.1124 9.78632C54.1124 11.2709 53.0343 12.3792 51.5676 12.3792ZM69.7164 11.9158C69.7164 14.2916 67.7114 15.8463 64.6905 15.8461C61.592 15.8461 59.7088 14.2097 59.673 11.7465L63.4421 11.7465C63.4421 12.5779 64.0208 12.9606 64.7634 12.9606C65.3362 12.9606 65.8792 12.6684 65.8792 12.0809C65.8792 11.425 65.0185 11.2381 63.9263 11.0575C62.1636 10.7718 59.8267 10.2398 59.8267 7.48254C59.8267 5.2038 61.7686 3.7326 64.6815 3.7326C67.5764 3.7326 69.4526 5.27264 69.4973 7.57623L65.8303 7.57623C65.8303 6.85034 65.3423 6.51282 64.6328 6.51282C64.005 6.51282 63.5833 6.82361 63.5833 7.35052C63.5833 7.9975 64.4528 8.14801 65.5328 8.34064C67.3286 8.65961 69.7164 9.03284 69.7164 11.9158ZM78.6676 14.9678C77.1351 18.4471 75.7265 19.704 72.7911 19.704L71.4503 19.704L71.4503 16.3394L72.5271 16.3394C74.0252 16.3394 74.4771 15.9493 75.0076 14.5345L70.3096 4.10529L74.5648 4.10529L76.9774 10.3678L79.2257 4.10529L83.4324 4.10529L78.6676 14.9678ZM97.2684 9.7981C97.2684 13.3312 94.7958 15.8461 91.2953 15.8461C89.9686 15.8461 88.7897 15.4012 87.8661 14.6297L87.4968 15.4737L84.5991 15.4737L84.5991 0L88.4703 0L88.4703 4.53412C89.2839 4.03156 90.244 3.75055 91.2953 3.75031C94.7958 3.75031 97.2684 6.26508 97.2684 9.7981ZM90.7716 12.3787C89.3048 12.3787 88.2267 11.2705 88.2267 9.7981C88.2267 8.31348 89.3048 7.20526 90.7716 7.20526C92.2383 7.20526 93.3164 8.31348 93.3164 9.7981C93.3164 11.2705 92.2292 12.3787 90.7716 12.3787ZM107.801 14.6577C106.87 15.4118 105.691 15.8463 104.37 15.8463C100.894 15.8463 98.4092 13.3103 98.4092 9.77728C98.4092 6.25641 100.894 3.75055 104.37 3.75055C105.709 3.75055 106.905 4.19769 107.844 4.97223L108.245 4.09308L111.163 4.09326L111.163 15.4617L108.136 15.4617L107.801 14.6577ZM104.894 12.3792C103.427 12.3792 102.349 11.2709 102.349 9.78632C102.349 8.31073 103.418 7.20251 104.894 7.20251C106.361 7.20251 107.439 8.31073 107.439 9.78632C107.439 11.2709 106.361 12.3792 104.894 12.3792ZM117.547 9.40295L117.547 15.4737L113.631 15.4737L113.631 4.10529L116.378 4.10529L116.916 5.27747C117.762 4.33429 119.024 3.76904 120.495 3.76904C123.135 3.76904 124.868 5.64526 124.868 8.54169L124.868 15.4737L120.953 15.4737L120.953 9.08276C120.953 7.75958 120.456 7.10315 119.47 7.10315C118.249 7.10315 117.547 7.95599 117.547 9.40295ZM131.295 10.6661L131.295 15.4737L127.379 15.4737L127.379 0L131.295 0L131.295 8.55896L134.003 4.10529L138.4 4.10529L134.857 9.52356L138.759 15.4737L134.142 15.4737L131.295 10.6661Z" clip-rule="evenodd" fill="#FFFFFF" fill-opacity="1.000000" fill-rule="evenodd"/>
	<path id="Path 5" d="M10.8025 0L0 19.704L5.98608 19.704L16.7886 0L10.8025 0Z" fill="url(#paint_linear_0_1342_0)" fill-opacity="1.000000" fill-rule="evenodd"/>
	<path id="Path 5" d="M0 19.704L5.98608 19.704L16.7886 0L10.8025 0L0 19.704Z" stroke="#979797" stroke-opacity="0" stroke-width="0.000000"/>
	<g opacity="0.500000">
		<path id="Path 5 Copy" d="M18.1709 0L7.36841 19.704L13.3545 19.704L24.157 0L18.1709 0Z" fill="url(#paint_linear_0_1343_0)" fill-opacity="1.000000" fill-rule="evenodd"/>
		<path id="Path 5 Copy" d="M7.36841 19.704L13.3545 19.704L24.157 0L18.1709 0L7.36841 19.704Z" stroke="#979797" stroke-opacity="0" stroke-width="0.000000"/>
	</g>
	<g opacity="0.150000">
		<path id="Path 5 Copy 2" d="M25.5393 0L14.7368 19.704L20.7229 19.704L31.5254 0L25.5393 0Z" fill="url(#paint_linear_0_1344_0)" fill-opacity="1.000000" fill-rule="evenodd"/>
		<path id="Path 5 Copy 2" d="M14.7368 19.704L20.7229 19.704L31.5254 0L25.5393 0L14.7368 19.704Z" stroke="#979797" stroke-opacity="0" stroke-width="0.000000"/>
	</g>
</svg>
