<svg width="20.000000" height="20.000000" viewBox="0 0 20 20" fill="none" xmlns="http://www.w3.org/2000/svg" xmlns:xlink="http://www.w3.org/1999/xlink">
	<desc>
			Created with Pixso.
	</desc>
	<defs/>
	<path id="pinterest" d="M10 0C4.47754 0 0 4.47668 0 10C0 14.2367 2.63586 17.855 6.35583 19.3116C6.26831 18.5209 6.18921 17.3075 6.39087 16.4442C6.57251 15.6633 7.56335 11.4734 7.56335 11.4734C7.56335 11.4734 7.26416 10.8741 7.26416 9.98828C7.26416 8.59839 8.06995 7.56006 9.07336 7.56006C9.92578 7.56006 10.3384 8.20081 10.3384 8.96838C10.3384 9.82581 9.79248 11.1083 9.51001 12.2975C9.27417 13.2925 10.0092 14.105 10.9908 14.105C12.7683 14.105 14.1342 12.2308 14.1342 9.52588C14.1342 7.13171 12.4142 5.45752 9.95752 5.45752C7.11255 5.45752 5.4425 7.59167 5.4425 9.79663C5.4425 10.6559 5.77332 11.5784 6.18665 12.0784C6.26831 12.1775 6.28003 12.265 6.25586 12.3658L5.97839 13.4991C5.9342 13.6825 5.83337 13.7217 5.64331 13.6333C4.39417 13.0516 3.61328 11.2258 3.61328 9.75916C3.61328 6.60498 5.90503 3.70752 10.2208 3.70752C13.6899 3.70752 16.3859 6.18005 16.3859 9.48328C16.3859 12.9301 14.2134 15.7034 11.1967 15.7034C10.1833 15.7034 9.23083 15.1775 8.90503 14.5551L8.28162 16.9325C8.05579 17.8016 7.44666 18.8909 7.03833 19.5542C7.97498 19.8434 8.96912 20 10 20C15.5225 20 20 15.5225 20 10C20 4.47668 15.5225 0 10 0Z" fill="#FFFFFF" fill-opacity="1.000000" fill-rule="nonzero"/>
</svg>
