<svg width="72.000000" height="72.000000" viewBox="0 0 72 72" fill="none" xmlns="http://www.w3.org/2000/svg" xmlns:xlink="http://www.w3.org/1999/xlink">
	<desc>
			Created with Pixso.
	</desc>
	<defs>
		<linearGradient id="paint_linear_0_331_0" x1="-35.848930" y1="35.848930" x2="35.848930" y2="107.546791" gradientUnits="userSpaceOnUse">
			<stop stop-color="#33D35E"/>
			<stop offset="1.000000" stop-color="#2AB6D9"/>
		</linearGradient>
	</defs>
	<circle id="Oval Copy" cx="36.000000" cy="36.000000" r="36.000000" fill="url(#paint_linear_0_331_0)" fill-opacity="1.000000"/>
	<circle id="Oval Copy" cx="36.000000" cy="36.000000" r="36.000000" stroke="#979797" stroke-opacity="0" stroke-width="0.000000"/>
	<path id="Combined Shape" d="M47.7249 26.6624L47.7249 19.0919C47.7249 17.3871 46.3378 16 44.6329 16L27.0986 16C25.3938 16 24.0067 17.3871 24.0067 19.0919L24.0067 42.8884C24.0067 43.2127 24.2695 43.4755 24.5938 43.4755C24.9181 43.4755 25.1809 43.2127 25.1809 42.8884L25.1809 22.184L46.5508 22.184L46.5508 26.6624C45.653 26.7115 44.7866 26.8719 43.9675 27.1298L43.9675 24.728C43.9675 24.4038 43.7047 24.1409 43.3804 24.1409L28.3511 24.1409C28.0269 24.1409 27.764 24.4038 27.764 24.728L27.764 37.5656C27.764 37.7201 27.827 37.8715 27.9359 37.9807L32.6326 42.6773C32.7413 42.7866 32.8937 42.8493 33.0477 42.8493L39.7527 42.8493L38.4451 46.4452C38.2648 46.9412 38.812 47.4153 39.278 47.1612L43.6611 44.7704C44.5901 45.0943 45.5588 45.2841 46.5507 45.3378L46.5507 49.1898L25.1808 49.1898L25.1808 45.6673C25.1808 45.343 24.918 45.0802 24.5938 45.0802C24.2694 45.0802 24.0066 45.343 24.0066 45.6673L24.0066 52.908C24.0066 54.6129 25.3937 55.9999 27.0985 55.9999L44.6328 55.9999C46.3376 55.9999 47.7247 54.6128 47.7247 52.908L47.7247 45.3376C52.9557 45.0517 57.118 40.9731 57.118 36C57.118 31.0269 52.9559 26.9483 47.7249 26.6624ZM25.1808 21.0098L25.1808 19.0919C25.1808 18.0345 26.041 17.1741 27.0986 17.1741L44.6328 17.1741C45.6903 17.1741 46.5507 18.0345 46.5507 19.0919L46.5507 21.0098L25.1808 21.0098ZM34.6133 18.5049L37.1182 18.5049C37.4425 18.5049 37.7053 18.7677 37.7053 19.092C37.7053 19.4163 37.4425 19.6791 37.1182 19.6791L34.6133 19.6791C34.2889 19.6791 34.0261 19.4163 34.0261 19.092C34.0261 18.7678 34.2889 18.5049 34.6133 18.5049ZM33.6349 41.6753L33.6349 37.5655C33.6349 37.2413 33.3721 36.9784 33.0477 36.9784L28.9381 36.9784L28.9381 25.3151L42.7933 25.3151L42.7933 27.5796C42.1886 27.8548 41.6182 28.1859 41.0887 28.5651C41.0226 28.5392 40.9509 28.5245 40.8755 28.5245L37.7445 28.5245C37.4202 28.5245 37.1573 28.7874 37.1573 29.1116C37.1573 29.4359 37.4202 29.6987 37.7445 29.6987L39.7682 29.6987C39.1949 30.2873 38.7009 30.9447 38.3014 31.6557L31.4823 31.6557C31.158 31.6557 30.8951 31.9186 30.8951 32.2428C30.8951 32.567 31.158 32.8299 31.4823 32.8299L37.748 32.8299C37.3661 33.8204 37.1575 34.8878 37.1575 36.0002C37.1575 38.0834 37.8754 40.0544 39.2023 41.6753L33.6349 41.6753ZM43.8202 43.579C44.8746 43.9778 45.9908 44.18 47.1378 44.18C51.9935 44.18 55.944 40.5105 55.944 35.9999C55.944 31.4894 51.9934 27.8198 47.1378 27.8198C42.2821 27.8198 38.3315 31.4894 38.3315 35.9999C38.3315 38.2172 39.2719 40.2933 40.9792 41.8456C41.1555 42.0059 41.2175 42.2567 41.1361 42.4806L40.0795 45.3865L43.3313 43.6127C43.4816 43.5308 43.6602 43.5184 43.8202 43.579ZM35.2395 28.5245L31.4822 28.5245C31.1578 28.5245 30.895 28.7873 30.895 29.1116C30.895 29.4358 31.1578 29.6987 31.4822 29.6987L35.2395 29.6987C35.5638 29.6987 35.8267 29.4358 35.8267 29.1116C35.8267 28.7873 35.5638 28.5245 35.2395 28.5245ZM50.2297 34.1213C50.2297 34.4455 49.9669 34.7084 49.6427 34.7084C49.3184 34.7084 49.0555 34.4455 49.0554 34.1213L49.0554 33.4951C49.0554 32.783 48.4761 32.2035 47.7639 32.2035L46.8246 32.2035C45.9397 32.2035 45.2198 32.9234 45.2198 33.8082C45.2198 34.693 45.9397 35.4129 46.8246 35.4129L47.4508 35.4129C48.9832 35.4129 50.2297 36.6595 50.2297 38.1918C50.2297 39.6316 49.129 40.819 47.7249 40.957L47.7249 42.2622C47.7249 42.5864 47.462 42.8493 47.1377 42.8493C46.8135 42.8493 46.5507 42.5864 46.5507 42.2622L46.5507 40.9706L46.5115 40.9706C45.1519 40.9706 44.0457 39.8645 44.0457 38.5048C44.0457 38.1806 44.3085 37.9177 44.6328 37.9177C44.9572 37.9177 45.2198 38.1806 45.2198 38.5048C45.2198 39.217 45.7993 39.7964 46.5115 39.7964L47.4508 39.7964C48.3356 39.7964 49.0554 39.0766 49.0554 38.1917C49.0554 37.3069 48.3356 36.587 47.4508 36.587L46.8245 36.587C45.2922 36.587 44.0457 35.3405 44.0457 33.8082C44.0457 32.3684 45.1465 31.181 46.5507 31.043L46.5507 29.7377C46.5507 29.4135 46.8135 29.1506 47.1377 29.1506C47.462 29.1506 47.7249 29.4135 47.7249 29.7377L47.7249 31.0293L47.7639 31.0293C49.1235 31.0293 50.2297 32.1355 50.2297 33.4951L50.2297 34.1213ZM31.4822 34.7867L35.8657 34.7867C36.1901 34.7867 36.4528 35.0495 36.4529 35.3738C36.4529 35.698 36.1901 35.9609 35.8657 35.9609L31.4822 35.9609C31.1578 35.9609 30.895 35.698 30.895 35.3738C30.895 35.0496 31.1578 34.7867 31.4822 34.7867ZM29.7684 38.1527L32.4607 40.8449L32.4607 38.1527L29.7684 38.1527ZM44.6329 54.8259C45.6904 54.8259 46.5508 53.9655 46.5508 52.908L46.5508 50.364L25.1808 50.364L25.1808 52.908C25.1808 53.9655 26.0411 54.8259 27.0986 54.8259L44.6329 54.8259ZM34.6133 51.0685L37.1183 51.0685C37.4425 51.0685 37.7053 51.3313 37.7053 51.6556L37.7053 53.5343C37.7053 53.8585 37.4425 54.1214 37.1183 54.1214L34.6133 54.1214C34.2891 54.1214 34.0262 53.8585 34.0262 53.5343L34.0262 51.6556C34.0262 51.3314 34.2891 51.0685 34.6133 51.0685ZM35.2004 52.9472L36.5311 52.9472L36.5311 52.2426L35.2004 52.2426L35.2004 52.9472Z" clip-rule="evenodd" fill="#FFFFFF" fill-opacity="1.000000" fill-rule="evenodd"/>
</svg>
