<svg width="20.000061" height="16.253296" viewBox="0 0 20.0001 16.2533" fill="none" xmlns="http://www.w3.org/2000/svg" xmlns:xlink="http://www.w3.org/1999/xlink">
	<desc>
			Created with Pixso.
	</desc>
	<defs/>
	<path id="twitter" d="M20.0001 1.92419C19.2642 2.25085 18.4733 2.47083 17.6434 2.56995C18.4908 2.0625 19.1417 1.2583 19.4474 0.300049C18.655 0.77002 17.7767 1.11169 16.8416 1.29578C16.0942 0.498291 15.0267 0 13.8466 0C11.1975 0 9.25085 2.47168 9.84918 5.03748C6.44 4.8667 3.41669 3.23328 1.39252 0.750854C0.317505 2.59497 0.835022 5.00745 2.66168 6.22913C1.98999 6.20752 1.35669 6.02332 0.804138 5.71582C0.759155 7.6167 2.12164 9.39502 4.09497 9.79089C3.51752 9.94751 2.88501 9.98413 2.24164 9.86084C2.76331 11.4908 4.27832 12.6766 6.07501 12.71C4.34998 14.0625 2.1767 14.6666 0 14.41C1.81586 15.5742 3.97333 16.2533 6.28998 16.2533C13.9084 16.2533 18.2125 9.81921 17.9525 4.04834C18.7542 3.46912 19.45 2.7467 20.0001 1.92419Z" fill="#FFFFFF" fill-opacity="1.000000" fill-rule="nonzero"/>
</svg>
