<svg width="20.000000" height="20.000000" viewBox="0 0 20 20" fill="none" xmlns="http://www.w3.org/2000/svg" xmlns:xlink="http://www.w3.org/1999/xlink">
	<desc>
			Created with Pixso.
	</desc>
	<defs/>
	<path id="youtube" d="M10 0C4.47748 0 0 4.47754 0 10C0 15.5225 4.47748 20 10 20C15.5225 20 20 15.5225 20 10C20 4.47754 15.5225 0 10 0ZM13.7008 14.0767C11.9492 14.1967 8.04749 14.1967 6.29834 14.0767C4.40167 13.9467 4.18085 13.0183 4.16669 10C4.18085 6.97583 4.40417 6.05334 6.29834 5.92334C8.04749 5.80334 11.95 5.80334 13.7008 5.92334C15.5983 6.05334 15.8184 6.98169 15.8333 10C15.8184 13.0242 15.5958 13.9467 13.7008 14.0767ZM12.4308 9.9967L8.33331 8.04834L8.33331 11.9517L12.4308 9.9967Z" clip-rule="evenodd" fill="#FFFFFF" fill-opacity="1.000000" fill-rule="evenodd"/>
</svg>
